<?xml version="1.0" encoding="UTF-8"?>
<!DOCTYPE svg PUBLIC "-//W3C//DTD SVG 1.1//EN" "http://www.w3.org/Graphics/SVG/1.1/DTD/svg11.dtd">
<svg xmlns="http://www.w3.org/2000/svg" version="1.1" width="600px" height="600px" style="shape-rendering:geometricPrecision; text-rendering:geometricPrecision; image-rendering:optimizeQuality; fill-rule:evenodd; clip-rule:evenodd" xmlns:xlink="http://www.w3.org/1999/xlink">
<g><path style="opacity:0.965" fill="#006ed2" d="M 297.5,-0.5 C 298.833,-0.5 300.167,-0.5 301.5,-0.5C 386.777,49.4784 472.444,98.9784 558.5,148C 559.495,175.759 559.828,203.593 559.5,231.5C 554.833,231.5 550.167,231.5 545.5,231.5C 545.828,206.592 545.494,181.759 544.5,157C 462.939,109.929 381.272,63.0956 299.5,16.5C 217.728,63.0956 136.061,109.929 54.5,157C 53.5055,181.759 53.1722,206.592 53.5,231.5C 48.8333,231.5 44.1667,231.5 39.5,231.5C 39.1716,203.593 39.5049,175.759 40.5,148C 126.556,98.9784 212.223,49.4784 297.5,-0.5 Z"/></g>
<g><path style="opacity:1" fill="#1b3860" d="M 559.5,231.5 C 559.5,288.167 559.5,344.833 559.5,401.5C 554.833,401.5 550.167,401.5 545.5,401.5C 545.667,414.504 545.5,427.504 545,440.5C 544.692,441.308 544.192,441.975 543.5,442.5C 462.401,489.604 381.068,536.271 299.5,582.5C 217.932,536.271 136.599,489.604 55.5,442.5C 54.8076,441.975 54.3076,441.308 54,440.5C 53.5001,427.504 53.3334,414.504 53.5,401.5C 48.8333,401.5 44.1667,401.5 39.5,401.5C 39.5,344.833 39.5,288.167 39.5,231.5C 44.1667,231.5 48.8333,231.5 53.5,231.5C 53.1722,206.592 53.5055,181.759 54.5,157C 136.061,109.929 217.728,63.0956 299.5,16.5C 381.272,63.0956 462.939,109.929 544.5,157C 545.494,181.759 545.828,206.592 545.5,231.5C 550.167,231.5 554.833,231.5 559.5,231.5 Z"/></g>
<g><path style="opacity:1" fill="#026fd3" d="M 538.5,161.5 C 538.5,184.833 538.5,208.167 538.5,231.5C 379.167,231.5 219.833,231.5 60.5,231.5C 60.5,208.167 60.5,184.833 60.5,161.5C 139.94,115.274 219.607,69.2742 299.5,23.5C 379.393,69.2742 459.06,115.274 538.5,161.5 Z"/></g>
<g><path style="opacity:1" fill="#f9fbfe" d="M 174.5,118.5 C 179.93,118.161 185.264,118.661 190.5,120C 193.333,121.5 195.5,123.667 197,126.5C 197.667,136.167 197.667,145.833 197,155.5C 195.181,160.336 191.681,163.169 186.5,164C 177.563,166.026 170.73,163.193 166,155.5C 165.333,145.833 165.333,136.167 166,126.5C 168.074,122.923 170.907,120.256 174.5,118.5 Z"/></g>
<g><path style="opacity:1" fill="#f9fbfe" d="M 326.5,118.5 C 333.909,117.621 340.909,118.788 347.5,122C 349.263,125.243 349.929,128.743 349.5,132.5C 345.167,132.5 340.833,132.5 336.5,132.5C 336.756,130.208 336.423,128.041 335.5,126C 334.551,125.383 333.718,125.549 333,126.5C 332.333,128.5 332.333,130.5 333,132.5C 337.084,135.126 341.25,137.626 345.5,140C 350.259,144.491 351.759,149.991 350,156.5C 349.727,158.329 348.893,159.829 347.5,161C 340.797,164.731 333.797,165.397 326.5,163C 320.26,159.681 317.926,154.515 319.5,147.5C 323.833,147.5 328.167,147.5 332.5,147.5C 332.223,150.448 332.556,153.281 333.5,156C 334.784,156.684 335.951,156.517 337,155.5C 337.711,153.101 337.544,150.768 336.5,148.5C 331.833,145.5 327.167,142.5 322.5,139.5C 321.416,138.335 320.583,137.002 320,135.5C 319.333,131.833 319.333,128.167 320,124.5C 321.494,121.686 323.66,119.686 326.5,118.5 Z"/></g>
<g><path style="opacity:1" fill="#5ca2e3" d="M 385.5,119.5 C 380.637,119.181 375.97,119.514 371.5,120.5C 370.957,120.44 370.624,120.107 370.5,119.5C 375.652,118.186 380.652,118.186 385.5,119.5 Z"/></g>
<g><path style="opacity:1" fill="#5da3e3" d="M 392.5,119.5 C 397.305,118.513 402.305,118.179 407.5,118.5C 407.737,119.791 407.404,120.791 406.5,121.5C 402.285,119.564 397.619,118.897 392.5,119.5 Z"/></g>
<g><path style="opacity:1" fill="#cce1f6" d="M 202.5,119.5 C 202.833,119.5 203.167,119.5 203.5,119.5C 203.5,133.833 203.5,148.167 203.5,162.5C 207.833,162.5 212.167,162.5 216.5,162.5C 212.03,163.486 207.363,163.819 202.5,163.5C 202.5,148.833 202.5,134.167 202.5,119.5 Z"/></g>
<g><path style="opacity:1" fill="#fefffe" d="M 203.5,119.5 C 210.833,119.5 218.167,119.5 225.5,119.5C 225.5,122.167 225.5,124.833 225.5,127.5C 222.287,127.19 219.287,127.523 216.5,128.5C 216.5,131.167 216.5,133.833 216.5,136.5C 219.167,136.5 221.833,136.5 224.5,136.5C 224.5,139.167 224.5,141.833 224.5,144.5C 221.615,144.194 218.948,144.527 216.5,145.5C 216.5,151.167 216.5,156.833 216.5,162.5C 212.167,162.5 207.833,162.5 203.5,162.5C 203.5,148.167 203.5,133.833 203.5,119.5 Z"/></g>
<g><path style="opacity:1" fill="#fefefe" d="M 252.5,119.5 C 252.5,122.167 252.5,124.833 252.5,127.5C 249.287,127.19 246.287,127.523 243.5,128.5C 243.5,131.167 243.5,133.833 243.5,136.5C 246.167,136.5 248.833,136.5 251.5,136.5C 251.5,139.167 251.5,141.833 251.5,144.5C 248.833,144.5 246.167,144.5 243.5,144.5C 242.51,150.31 242.177,156.31 242.5,162.5C 238.167,162.5 233.833,162.5 229.5,162.5C 229.5,148.167 229.5,133.833 229.5,119.5C 237.167,119.5 244.833,119.5 252.5,119.5 Z"/></g>
<g><path style="opacity:1" fill="#fefffe" d="M 256.5,119.5 C 263.833,119.5 271.167,119.5 278.5,119.5C 278.5,122.167 278.5,124.833 278.5,127.5C 275.5,127.5 272.5,127.5 269.5,127.5C 269.19,130.713 269.523,133.713 270.5,136.5C 273.167,136.5 275.833,136.5 278.5,136.5C 278.5,139.167 278.5,141.833 278.5,144.5C 275.5,144.5 272.5,144.5 269.5,144.5C 269.187,148.042 269.521,151.375 270.5,154.5C 273.5,154.5 276.5,154.5 279.5,154.5C 279.5,157.167 279.5,159.833 279.5,162.5C 271.833,162.5 264.167,162.5 256.5,162.5C 256.5,148.167 256.5,133.833 256.5,119.5 Z"/></g>
<g><path style="opacity:1" fill="#8fbeeb" d="M 295.5,119.5 C 291.833,119.5 288.167,119.5 284.5,119.5C 284.5,133.833 284.5,148.167 284.5,162.5C 288.167,162.5 291.833,162.5 295.5,162.5C 291.702,163.483 287.702,163.817 283.5,163.5C 283.5,148.5 283.5,133.5 283.5,118.5C 287.702,118.183 291.702,118.517 295.5,119.5 Z"/></g>
<g><path style="opacity:1" fill="#fdfefe" d="M 295.5,119.5 C 297.736,124.32 299.736,129.32 301.5,134.5C 301.461,135.756 301.961,136.756 303,137.5C 303.499,131.509 303.666,125.509 303.5,119.5C 307.167,119.5 310.833,119.5 314.5,119.5C 314.5,134.167 314.5,148.833 314.5,163.5C 310.445,163.824 306.445,163.491 302.5,162.5C 300.432,156.462 298.265,150.462 296,144.5C 295.501,150.491 295.334,156.491 295.5,162.5C 291.833,162.5 288.167,162.5 284.5,162.5C 284.5,148.167 284.5,133.833 284.5,119.5C 288.167,119.5 291.833,119.5 295.5,119.5 Z"/></g>
<g><path style="opacity:1" fill="#549de1" d="M 303.5,119.5 C 303.666,125.509 303.499,131.509 303,137.5C 301.961,136.756 301.461,135.756 301.5,134.5C 302.167,129.5 302.833,124.5 303.5,119.5 Z"/></g>
<g><path style="opacity:1" fill="#8fbfeb" d="M 368.5,119.5 C 364.167,119.5 359.833,119.5 355.5,119.5C 355.5,133.833 355.5,148.167 355.5,162.5C 359.833,162.5 364.167,162.5 368.5,162.5C 364.03,163.486 359.363,163.819 354.5,163.5C 354.5,148.5 354.5,133.5 354.5,118.5C 359.363,118.181 364.03,118.514 368.5,119.5 Z"/></g>
<g><path style="opacity:1" fill="#fefffe" d="M 368.5,119.5 C 368.5,133.833 368.5,148.167 368.5,162.5C 364.167,162.5 359.833,162.5 355.5,162.5C 355.5,148.167 355.5,133.833 355.5,119.5C 359.833,119.5 364.167,119.5 368.5,119.5 Z"/></g>
<g><path style="opacity:1" fill="#fcfdfe" d="M 385.5,119.5 C 386.566,127.019 387.566,134.686 388.5,142.5C 388.34,144.199 388.506,145.866 389,147.5C 390.316,144.312 390.816,140.978 390.5,137.5C 390.988,131.463 391.655,125.463 392.5,119.5C 397.619,118.897 402.285,119.564 406.5,121.5C 403.957,135.089 401.957,148.756 400.5,162.5C 393.08,162.797 385.746,162.464 378.5,161.5C 376.551,147.755 374.217,134.088 371.5,120.5C 375.97,119.514 380.637,119.181 385.5,119.5 Z"/></g>
<g><path style="opacity:1" fill="#fdfdfe" d="M 432.5,154.5 C 432.5,157.167 432.5,159.833 432.5,162.5C 424.833,162.5 417.167,162.5 409.5,162.5C 409.5,148.167 409.5,133.833 409.5,119.5C 417.167,119.5 424.833,119.5 432.5,119.5C 432.5,122.167 432.5,124.833 432.5,127.5C 429.5,127.5 426.5,127.5 423.5,127.5C 423.5,130.5 423.5,133.5 423.5,136.5C 426.167,136.5 428.833,136.5 431.5,136.5C 431.5,139.167 431.5,141.833 431.5,144.5C 428.833,144.5 426.167,144.5 423.5,144.5C 423.5,147.833 423.5,151.167 423.5,154.5C 426.5,154.5 429.5,154.5 432.5,154.5 Z"/></g>
<g><path style="opacity:1" fill="#cde2f6" d="M 440.5,119.5 C 448.219,118.87 450.219,121.87 446.5,128.5C 441.929,130.381 439.263,128.881 438.5,124C 438.519,122.167 439.185,120.667 440.5,119.5 Z"/></g>
<g><path style="opacity:1" fill="#3f8bdb" d="M 441.5,121.5 C 444.332,119.889 446.332,120.722 447.5,124C 444.833,130 442.167,130 439.5,124C 439.639,122.699 440.305,121.866 441.5,121.5 Z"/></g>
<g><path style="opacity:1" fill="#b5d3f2" d="M 441.5,121.5 C 445.071,121.408 446.238,123.074 445,126.5C 444,125.167 443,125.167 442,126.5C 441.506,124.866 441.34,123.199 441.5,121.5 Z"/></g>
<g><path style="opacity:1" fill="#0a71d3" d="M 180.5,125.5 C 181.496,125.414 182.329,125.748 183,126.5C 183.5,136.494 183.666,146.494 183.5,156.5C 182.178,156.67 181.011,156.337 180,155.5C 179.193,145.423 179.36,135.423 180.5,125.5 Z"/></g>
<g><path style="opacity:1" fill="#79b2e7" d="M 202.5,119.5 C 210.316,118.508 218.316,118.174 226.5,118.5C 226.5,121.833 226.5,125.167 226.5,128.5C 223.167,128.5 219.833,128.5 216.5,128.5C 219.287,127.523 222.287,127.19 225.5,127.5C 225.5,124.833 225.5,122.167 225.5,119.5C 218.167,119.5 210.833,119.5 203.5,119.5C 203.167,119.5 202.833,119.5 202.5,119.5 Z"/></g>
<g><path style="opacity:1" fill="#70ade6" d="M 252.5,119.5 C 253.477,122.287 253.81,125.287 253.5,128.5C 250.167,128.5 246.833,128.5 243.5,128.5C 246.287,127.523 249.287,127.19 252.5,127.5C 252.5,124.833 252.5,122.167 252.5,119.5 Z"/></g>
<g><path style="opacity:1" fill="#7ab2e7" d="M 256.5,119.5 C 263.982,118.508 271.648,118.175 279.5,118.5C 279.5,121.833 279.5,125.167 279.5,128.5C 276.5,128.5 273.5,128.5 270.5,128.5C 270.5,131.167 270.5,133.833 270.5,136.5C 269.523,133.713 269.19,130.713 269.5,127.5C 272.5,127.5 275.5,127.5 278.5,127.5C 278.5,124.833 278.5,122.167 278.5,119.5C 271.167,119.5 263.833,119.5 256.5,119.5 Z"/></g>
<g><path style="opacity:1" fill="#5ea0e2" d="M 224.5,136.5 C 225.477,139.287 225.81,142.287 225.5,145.5C 222.5,145.5 219.5,145.5 216.5,145.5C 218.948,144.527 221.615,144.194 224.5,144.5C 224.5,141.833 224.5,139.167 224.5,136.5 Z"/></g>
<g><path style="opacity:1" fill="#8cbbea" d="M 390.5,137.5 C 390.816,140.978 390.316,144.312 389,147.5C 388.506,145.866 388.34,144.199 388.5,142.5C 389.167,140.833 389.833,139.167 390.5,137.5 Z"/></g>
<g><path style="opacity:1" fill="#66a7e4" d="M 278.5,144.5 C 276.052,145.473 273.385,145.806 270.5,145.5C 270.5,148.5 270.5,151.5 270.5,154.5C 269.521,151.375 269.187,148.042 269.5,144.5C 272.5,144.5 275.5,144.5 278.5,144.5 Z"/></g>
<g><path style="opacity:1" fill="#bedaf3" d="M 243.5,144.5 C 243.5,150.833 243.5,157.167 243.5,163.5C 238.637,163.819 233.97,163.486 229.5,162.5C 233.833,162.5 238.167,162.5 242.5,162.5C 242.177,156.31 242.51,150.31 243.5,144.5 Z"/></g>
<g><path style="opacity:1" fill="#9dc6ed" d="M 256.5,119.5 C 256.5,133.833 256.5,148.167 256.5,162.5C 264.167,162.5 271.833,162.5 279.5,162.5C 279.5,159.833 279.5,157.167 279.5,154.5C 280.477,157.287 280.81,160.287 280.5,163.5C 272.167,163.5 263.833,163.5 255.5,163.5C 255.171,148.657 255.504,133.99 256.5,119.5 Z"/></g>
<g><path style="opacity:1" fill="#c2dcf4" d="M 432.5,154.5 C 433.477,157.287 433.81,160.287 433.5,163.5C 425.316,163.826 417.316,163.492 409.5,162.5C 417.167,162.5 424.833,162.5 432.5,162.5C 432.5,159.833 432.5,157.167 432.5,154.5 Z"/></g>
<g><path style="opacity:1" fill="#174276" d="M 60.5,161.5 C 60.5,184.833 60.5,208.167 60.5,231.5C 219.833,231.5 379.167,231.5 538.5,231.5C 538.5,208.167 538.5,184.833 538.5,161.5C 539.498,184.994 539.831,208.661 539.5,232.5C 379.5,232.5 219.5,232.5 59.5,232.5C 59.1691,208.661 59.5024,184.994 60.5,161.5 Z"/></g>
<g><path style="opacity:1" fill="#f6f9fd" d="M 399.5,202.5 C 400.167,202.5 400.5,202.833 400.5,203.5C 400.5,204.5 400.5,205.5 400.5,206.5C 405.5,206.5 410.5,206.5 415.5,206.5C 415.5,206.833 415.5,207.167 415.5,207.5C 410.167,207.5 404.833,207.5 399.5,207.5C 399.5,205.833 399.5,204.167 399.5,202.5 Z"/></g>
<g><path style="opacity:1" fill="#f3f8fd" d="M 395.5,198.5 C 395.5,200.167 395.5,201.833 395.5,203.5C 390.5,203.5 385.5,203.5 380.5,203.5C 380.5,203.167 380.5,202.833 380.5,202.5C 385.167,202.5 389.833,202.5 394.5,202.5C 394.5,201.5 394.5,200.5 394.5,199.5C 394.5,198.833 394.833,198.5 395.5,198.5 Z"/></g>
<g><path style="opacity:1" fill="#cfe3f6" d="M 354.5,174.5 C 359.167,174.5 363.833,174.5 368.5,174.5C 368.5,184.167 368.5,193.833 368.5,203.5C 363.833,203.5 359.167,203.5 354.5,203.5C 354.5,193.833 354.5,184.167 354.5,174.5 Z"/></g>
<g><path style="opacity:1" fill="#d1e4f7" d="M 268.5,203.5 C 267.508,203.672 266.842,203.338 266.5,202.5C 269.176,201.992 271.843,201.825 274.5,202C 272.655,203.128 270.655,203.628 268.5,203.5 Z"/></g>
<g><path style="opacity:1" fill="#96c1ec" d="M 166.5,197.5 C 166.833,197.5 167.167,197.5 167.5,197.5C 169.329,200.254 171.995,201.754 175.5,202C 182.528,202.675 189.528,202.508 196.5,201.5C 187.252,205.528 177.918,205.362 168.5,201C 167.695,199.887 167.028,198.721 166.5,197.5 Z"/></g>
<g><path style="opacity:1" fill="#93c0ec" d="M 389.5,197.5 C 389.833,197.5 390.167,197.5 390.5,197.5C 392.415,197.216 394.081,197.549 395.5,198.5C 394.833,198.5 394.5,198.833 394.5,199.5C 392.302,199.88 390.635,199.213 389.5,197.5 Z"/></g>
<g><path style="opacity:1" fill="#96c2ec" d="M 374.5,170.5 C 374.5,171.167 374.833,171.5 375.5,171.5C 376.244,174.95 374.91,176.616 371.5,176.5C 371.5,177.5 371.5,178.5 371.5,179.5C 372.833,179.5 374.167,179.5 375.5,179.5C 375.17,186.532 375.503,193.532 376.5,200.5C 378.026,200.994 379.359,201.661 380.5,202.5C 380.5,202.833 380.5,203.167 380.5,203.5C 377.767,203.052 375.601,201.719 374,199.5C 373.5,193.175 373.334,186.842 373.5,180.5C 372.5,180.5 371.5,180.5 370.5,180.5C 370.5,178.5 370.5,176.5 370.5,174.5C 371.5,174.5 372.5,174.5 373.5,174.5C 373.232,172.901 373.566,171.568 374.5,170.5 Z"/></g>
<g><path style="opacity:1" fill="#9cc5ed" d="M 181.5,191.5 C 186.012,191.869 187.512,194.202 186,198.5C 181.472,200.152 179.305,198.486 179.5,193.5C 180.5,193.167 181.167,192.5 181.5,191.5 Z"/></g>
<g><path style="opacity:1" fill="#0671d3" d="M 181.5,193.5 C 184.5,193.167 185.833,194.5 185.5,197.5C 184.167,197.5 182.833,197.5 181.5,197.5C 181.5,196.167 181.5,194.833 181.5,193.5 Z"/></g>
<g><path style="opacity:1" fill="#ecf5fb" d="M 180.5,191.5 C 180.833,191.5 181.167,191.5 181.5,191.5C 181.167,192.5 180.5,193.167 179.5,193.5C 175.5,193.5 171.5,193.5 167.5,193.5C 167.5,194.833 167.5,196.167 167.5,197.5C 167.167,197.5 166.833,197.5 166.5,197.5C 166.5,195.833 166.5,194.167 166.5,192.5C 170.5,192.5 174.5,192.5 178.5,192.5C 179.167,192.167 179.833,191.833 180.5,191.5 Z"/></g>
<g><path style="opacity:1" fill="#b7d5f2" d="M 345.5,184.5 C 346.167,184.5 346.5,184.833 346.5,185.5C 345.504,185.414 344.671,185.748 344,186.5C 343.827,192.348 343.327,198.015 342.5,203.5C 342.5,203.167 342.5,202.833 342.5,202.5C 342.334,196.824 342.501,191.157 343,185.5C 343.671,184.748 344.504,184.414 345.5,184.5 Z"/></g>
<g><path style="opacity:1" fill="#92bfec" d="M 261.5,197.5 C 262.833,197.5 264.167,197.5 265.5,197.5C 265.5,195.167 265.5,192.833 265.5,190.5C 270.5,190.5 275.5,190.5 280.5,190.5C 280.893,193.93 280.227,197.096 278.5,200C 277.833,200.667 277.167,200.667 276.5,200C 278.747,198.005 279.747,195.505 279.5,192.5C 275.5,192.5 271.5,192.5 267.5,192.5C 268.473,197.006 266.806,199.172 262.5,199C 261.944,198.617 261.611,198.117 261.5,197.5 Z"/></g>
<g><path style="opacity:1" fill="#61a4e3" d="M 240.5,182.5 C 241.833,187.167 241.833,191.833 240.5,196.5C 240.5,194.5 240.5,192.5 240.5,190.5C 235.5,190.5 230.5,190.5 225.5,190.5C 225.795,192.735 225.461,194.735 224.5,196.5C 224.5,194.5 224.5,192.5 224.5,190.5C 223.5,190.5 222.5,190.5 221.5,190.5C 227.645,189.51 233.978,189.177 240.5,189.5C 240.5,187.167 240.5,184.833 240.5,182.5 Z"/></g>
<g><path style="opacity:1" fill="#a9ccef" d="M 196.5,201.5 C 199.986,197.935 200.319,194.101 197.5,190C 197.833,189.833 198.167,189.667 198.5,189.5C 201.769,192.354 202.269,195.687 200,199.5C 199.184,200.823 198.017,201.489 196.5,201.5 Z"/></g>
<g><path style="opacity:1" fill="#a0c8ee" d="M 239.5,180.5 C 240.338,180.842 240.672,181.508 240.5,182.5C 240.5,184.833 240.5,187.167 240.5,189.5C 233.978,189.177 227.645,189.51 221.5,190.5C 221.5,192.833 221.5,195.167 221.5,197.5C 222.791,197.737 223.791,197.404 224.5,196.5C 225.461,194.735 225.795,192.735 225.5,190.5C 230.5,190.5 235.5,190.5 240.5,190.5C 240.5,192.5 240.5,194.5 240.5,196.5C 238.062,201.232 234.062,203.732 228.5,204C 224.5,204.667 220.5,204.667 216.5,204C 213.334,203.678 210.667,202.511 208.5,200.5C 216.043,202.424 223.71,202.924 231.5,202C 237.439,200.904 240.106,197.404 239.5,191.5C 235.167,191.5 230.833,191.5 226.5,191.5C 226.662,193.527 226.495,195.527 226,197.5C 224,200.167 222,200.167 220,197.5C 219.502,194.518 219.335,191.518 219.5,188.5C 226.167,188.5 232.833,188.5 239.5,188.5C 239.5,185.833 239.5,183.167 239.5,180.5 Z"/></g>
<g><path style="opacity:1" fill="#006ed3" d="M 221.5,190.5 C 222.5,190.5 223.5,190.5 224.5,190.5C 224.5,192.5 224.5,194.5 224.5,196.5C 223.791,197.404 222.791,197.737 221.5,197.5C 221.5,195.167 221.5,192.833 221.5,190.5 Z"/></g>
<g><path style="opacity:1" fill="#a8ccef" d="M 169.5,176.5 C 167.568,179.177 167.068,182.177 168,185.5C 171.842,188.38 176.009,190.38 180.5,191.5C 179.833,191.833 179.167,192.167 178.5,192.5C 174.407,191.178 170.574,189.178 167,186.5C 165.627,184.305 165.294,181.971 166,179.5C 166.422,177.574 167.589,176.574 169.5,176.5 Z"/></g>
<g><path style="opacity:1" fill="#5ba0e2" d="M 345.5,184.5 C 345.842,183.662 346.508,183.328 347.5,183.5C 348.919,184.451 350.585,184.784 352.5,184.5C 350.735,185.461 348.735,185.795 346.5,185.5C 346.5,184.833 346.167,184.5 345.5,184.5 Z"/></g>
<g><path style="opacity:1" fill="#a9ccef" d="M 261.5,197.5 C 260.347,191.681 260.181,185.681 261,179.5C 265.675,177.666 267.508,179.333 266.5,184.5C 270.833,184.5 275.167,184.5 279.5,184.5C 279.102,179.6 276.435,176.767 271.5,176C 263.694,175.026 256.027,175.526 248.5,177.5C 250.385,175.689 252.719,174.522 255.5,174C 261.569,173.196 267.569,173.529 273.5,175C 279.015,176.858 281.348,180.692 280.5,186.5C 275.489,186.666 270.489,186.499 265.5,186C 264.594,184.301 264.261,182.467 264.5,180.5C 263.5,180.5 262.5,180.5 261.5,180.5C 261.5,186.167 261.5,191.833 261.5,197.5 Z"/></g>
<g><path style="opacity:1" fill="#cee2f6" d="M 205.5,180.5 C 205.334,185.844 205.501,191.177 206,196.5C 206.662,197.984 207.496,199.317 208.5,200.5C 206.589,200.426 205.422,199.426 205,197.5C 204.182,191.651 204.348,185.985 205.5,180.5 Z"/></g>
<g><path style="opacity:1" fill="#afcff0" d="M 181.5,178.5 C 185.5,177.833 187.167,179.5 186.5,183.5C 190.5,183.5 194.5,183.5 198.5,183.5C 198.34,181.801 198.506,180.134 199,178.5C 199.495,180.473 199.662,182.473 199.5,184.5C 195.154,184.334 190.821,184.501 186.5,185C 189.56,185.848 192.56,186.848 195.5,188C 190.03,187.734 184.863,186.234 180,183.5C 179.36,181.457 179.86,179.79 181.5,178.5 Z"/></g>
<g><path style="opacity:1" fill="#93c0ec" d="M 246.5,179.5 C 241.871,197.197 248.538,204.864 266.5,202.5C 266.842,203.338 267.508,203.672 268.5,203.5C 248.087,207.095 240.753,199.095 246.5,179.5 Z"/></g>
<g><path style="opacity:1" fill="#0470d3" d="M 181.5,180.5 C 182.5,180.5 183.5,180.5 184.5,180.5C 184.5,181.5 184.5,182.5 184.5,183.5C 183.5,183.5 182.5,183.5 181.5,183.5C 181.5,182.5 181.5,181.5 181.5,180.5 Z"/></g>
<g><path style="opacity:1" fill="#f8fbfd" d="M 394.5,175.5 C 394.5,177.167 394.5,178.833 394.5,180.5C 393.167,180.5 391.833,180.5 390.5,180.5C 390.5,186.167 390.5,191.833 390.5,197.5C 390.167,197.5 389.833,197.5 389.5,197.5C 389.5,191.5 389.5,185.5 389.5,179.5C 390.833,179.5 392.167,179.5 393.5,179.5C 393.5,178.5 393.5,177.5 393.5,176.5C 393.5,175.833 393.833,175.5 394.5,175.5 Z"/></g>
<g><path style="opacity:1" fill="#c9e0f5" d="M 248.5,177.5 C 248.167,178.5 247.5,179.167 246.5,179.5C 246.5,178.167 247.167,177.5 248.5,177.5 Z"/></g>
<g><path style="opacity:1" fill="#0470d3" d="M 415.5,206.5 C 410.5,206.5 405.5,206.5 400.5,206.5C 400.5,205.5 400.5,204.5 400.5,203.5C 402.827,203.753 404.827,203.086 406.5,201.5C 403.303,193.243 400.303,184.91 397.5,176.5C 401.715,175.202 405.882,175.202 410,176.5C 411.511,182.877 413.177,189.21 415,195.5C 416.65,188.992 417.817,182.326 418.5,175.5C 422.5,175.5 426.5,175.5 430.5,175.5C 429.115,185.266 426.782,194.766 423.5,204C 420.865,205.024 418.198,205.857 415.5,206.5 Z"/></g>
<g><path style="opacity:1" fill="#7bb3e8" d="M 390.5,174.5 C 392.099,174.232 393.432,174.566 394.5,175.5C 393.833,175.5 393.5,175.833 393.5,176.5C 391.901,176.768 390.568,176.434 389.5,175.5C 390.167,175.5 390.5,175.167 390.5,174.5 Z"/></g>
<g><path style="opacity:1" fill="#0570d3" d="M 355.5,175.5 C 359.5,175.5 363.5,175.5 367.5,175.5C 367.5,184.5 367.5,193.5 367.5,202.5C 363.5,202.5 359.5,202.5 355.5,202.5C 355.5,193.5 355.5,184.5 355.5,175.5 Z"/></g>
<g><path style="opacity:1" fill="#bad6f3" d="M 352.5,184.5 C 350.585,184.784 348.919,184.451 347.5,183.5C 348.833,183.5 350.167,183.5 351.5,183.5C 351.5,180.833 351.5,178.167 351.5,175.5C 347.574,175.047 344.408,176.38 342,179.5C 341.51,178.207 341.343,176.873 341.5,175.5C 336.833,175.5 332.167,175.5 327.5,175.5C 327.5,175.167 327.5,174.833 327.5,174.5C 333.229,174.212 338.896,174.546 344.5,175.5C 346.943,173.945 349.61,173.278 352.5,173.5C 352.5,177.167 352.5,180.833 352.5,184.5 Z"/></g>
<g><path style="opacity:1" fill="#0d72d4" d="M 327.5,175.5 C 332.167,175.5 336.833,175.5 341.5,175.5C 341.343,176.873 341.51,178.207 342,179.5C 344.408,176.38 347.574,175.047 351.5,175.5C 351.5,178.167 351.5,180.833 351.5,183.5C 350.167,183.5 348.833,183.5 347.5,183.5C 346.508,183.328 345.842,183.662 345.5,184.5C 344.504,184.414 343.671,184.748 343,185.5C 342.501,191.157 342.334,196.824 342.5,202.5C 337.5,202.5 332.5,202.5 327.5,202.5C 327.5,193.5 327.5,184.5 327.5,175.5 Z"/></g>
<g><path style="opacity:1" fill="#0970d3" d="M 301.5,198.5 C 303.153,199.799 304.653,199.466 306,197.5C 306.5,190.174 306.666,182.841 306.5,175.5C 311.167,175.5 315.833,175.5 320.5,175.5C 320.5,184.5 320.5,193.5 320.5,202.5C 314.865,203.037 309.532,202.37 304.5,200.5C 298.666,203.139 292.833,203.139 287,200.5C 285.562,192.277 285.062,183.943 285.5,175.5C 290.5,175.5 295.5,175.5 300.5,175.5C 300.175,183.352 300.508,191.018 301.5,198.5 Z"/></g>
<g><path style="opacity:1" fill="#0470d3" d="M 239.5,180.5 C 239.5,183.167 239.5,185.833 239.5,188.5C 232.833,188.5 226.167,188.5 219.5,188.5C 219.335,191.518 219.502,194.518 220,197.5C 222,200.167 224,200.167 226,197.5C 226.495,195.527 226.662,193.527 226.5,191.5C 230.833,191.5 235.167,191.5 239.5,191.5C 240.106,197.404 237.439,200.904 231.5,202C 223.71,202.924 216.043,202.424 208.5,200.5C 207.496,199.317 206.662,197.984 206,196.5C 205.501,191.177 205.334,185.844 205.5,180.5C 210.08,176.108 215.58,174.441 222,175.5C 228.7,174.474 234.533,176.141 239.5,180.5 Z"/></g>
<g><path style="opacity:1" fill="#a3c9ee" d="M 220.5,178.5 C 222.144,178.286 223.644,178.62 225,179.5C 225.495,181.473 225.662,183.473 225.5,185.5C 223.5,185.5 221.5,185.5 219.5,185.5C 219.298,183.05 219.631,180.717 220.5,178.5 Z"/></g>
<g><path style="opacity:1" fill="#2b7fd8" d="M 221.5,179.5 C 224.084,180.048 225.084,181.715 224.5,184.5C 223.5,184.5 222.5,184.5 221.5,184.5C 221.5,182.833 221.5,181.167 221.5,179.5 Z"/></g>
<g><path style="opacity:1" fill="#b0d0f1" d="M 415.5,207.5 C 415.5,207.167 415.5,206.833 415.5,206.5C 418.198,205.857 420.865,205.024 423.5,204C 426.782,194.766 429.115,185.266 430.5,175.5C 426.5,175.5 422.5,175.5 418.5,175.5C 417.817,182.326 416.65,188.992 415,195.5C 413.177,189.21 411.511,182.877 410,176.5C 405.882,175.202 401.715,175.202 397.5,176.5C 400.303,184.91 403.303,193.243 406.5,201.5C 404.827,203.086 402.827,203.753 400.5,203.5C 400.5,202.833 400.167,202.5 399.5,202.5C 400.919,201.549 402.585,201.216 404.5,201.5C 401.906,192.719 398.906,184.052 395.5,175.5C 400.792,174.505 406.125,174.172 411.5,174.5C 414.424,194.268 416.091,194.268 416.5,174.5C 421.833,174.5 427.167,174.5 432.5,174.5C 430.823,184.725 428.323,194.725 425,204.5C 422.123,206.404 418.956,207.404 415.5,207.5 Z"/></g>
<g><path style="opacity:1" fill="#e7f1fb" d="M 327.5,174.5 C 327.5,174.833 327.5,175.167 327.5,175.5C 327.5,184.5 327.5,193.5 327.5,202.5C 332.5,202.5 337.5,202.5 342.5,202.5C 342.5,202.833 342.5,203.167 342.5,203.5C 337.167,203.5 331.833,203.5 326.5,203.5C 326.173,193.652 326.506,183.986 327.5,174.5 Z"/></g>
<g><path style="opacity:1" fill="#fdfdfe" d="M 320.5,174.5 C 321.494,183.986 321.827,193.652 321.5,203.5C 315.642,203.822 309.975,203.489 304.5,202.5C 304.5,201.833 304.5,201.167 304.5,200.5C 309.532,202.37 314.865,203.037 320.5,202.5C 320.5,193.5 320.5,184.5 320.5,175.5C 320.5,175.167 320.5,174.833 320.5,174.5 Z"/></g>
<g><path style="opacity:1" fill="#93c1ec" d="M 320.5,174.5 C 320.5,174.833 320.5,175.167 320.5,175.5C 315.833,175.5 311.167,175.5 306.5,175.5C 306.666,182.841 306.5,190.174 306,197.5C 304.653,199.466 303.153,199.799 301.5,198.5C 301.5,198.167 301.5,197.833 301.5,197.5C 302.5,197.5 303.5,197.5 304.5,197.5C 304.5,189.833 304.5,182.167 304.5,174.5C 309.833,174.5 315.167,174.5 320.5,174.5 Z"/></g>
<g><path style="opacity:1" fill="#bcd8f3" d="M 301.5,197.5 C 301.5,197.833 301.5,198.167 301.5,198.5C 300.508,191.018 300.175,183.352 300.5,175.5C 295.5,175.5 290.5,175.5 285.5,175.5C 285.062,183.943 285.562,192.277 287,200.5C 292.833,203.139 298.666,203.139 304.5,200.5C 304.5,201.167 304.5,201.833 304.5,202.5C 298.138,205.433 291.971,205.099 286,201.5C 284.557,192.608 284.057,183.608 284.5,174.5C 290.167,174.5 295.833,174.5 301.5,174.5C 301.5,182.167 301.5,189.833 301.5,197.5 Z"/></g>
<g><path style="opacity:1" fill="#9ec5ed" d="M 169.5,176.5 C 173.192,174.067 177.359,173.067 182,173.5C 187.577,173.147 192.744,174.314 197.5,177C 188.286,175.242 178.953,175.076 169.5,176.5 Z"/></g>
<g><path style="opacity:1" fill="#9ec6ed" d="M 239.5,180.5 C 234.533,176.141 228.7,174.474 222,175.5C 215.58,174.441 210.08,176.108 205.5,180.5C 206.359,177.548 208.359,175.715 211.5,175C 220.415,172.637 229.081,173.303 237.5,177C 238.823,177.816 239.489,178.983 239.5,180.5 Z"/></g>
<g><path style="opacity:1" fill="#0370d3" d="M 375.5,171.5 C 380.167,171.5 384.833,171.5 389.5,171.5C 389.5,172.833 389.5,174.167 389.5,175.5C 390.568,176.434 391.901,176.768 393.5,176.5C 393.5,177.5 393.5,178.5 393.5,179.5C 392.167,179.5 390.833,179.5 389.5,179.5C 389.5,185.5 389.5,191.5 389.5,197.5C 390.635,199.213 392.302,199.88 394.5,199.5C 394.5,200.5 394.5,201.5 394.5,202.5C 389.833,202.5 385.167,202.5 380.5,202.5C 379.359,201.661 378.026,200.994 376.5,200.5C 375.503,193.532 375.17,186.532 375.5,179.5C 374.167,179.5 372.833,179.5 371.5,179.5C 371.5,178.5 371.5,177.5 371.5,176.5C 374.91,176.616 376.244,174.95 375.5,171.5 Z"/></g>
<g><path style="opacity:1" fill="#fefffe" d="M 374.5,170.5 C 379.833,170.5 385.167,170.5 390.5,170.5C 390.5,171.833 390.5,173.167 390.5,174.5C 390.5,175.167 390.167,175.5 389.5,175.5C 389.5,174.167 389.5,172.833 389.5,171.5C 384.833,171.5 380.167,171.5 375.5,171.5C 374.833,171.5 374.5,171.167 374.5,170.5 Z"/></g>
<g><path style="opacity:1" fill="#016fd3" d="M 355.5,169.5 C 359.5,169.5 363.5,169.5 367.5,169.5C 367.5,170.5 367.5,171.5 367.5,172.5C 363.5,172.5 359.5,172.5 355.5,172.5C 355.5,171.5 355.5,170.5 355.5,169.5 Z"/></g>
<g><path style="opacity:1" fill="#91bfec" d="M 354.5,168.5 C 358.97,167.514 363.637,167.181 368.5,167.5C 368.5,169.167 368.5,170.833 368.5,172.5C 368.167,172.5 367.833,172.5 367.5,172.5C 367.5,171.5 367.5,170.5 367.5,169.5C 363.5,169.5 359.5,169.5 355.5,169.5C 355.5,168.833 355.167,168.5 354.5,168.5 Z"/></g>
<g><path style="opacity:1" fill="#f0f7fc" d="M 354.5,168.5 C 355.167,168.5 355.5,168.833 355.5,169.5C 355.5,170.5 355.5,171.5 355.5,172.5C 359.5,172.5 363.5,172.5 367.5,172.5C 367.833,172.5 368.167,172.5 368.5,172.5C 364.03,173.486 359.363,173.819 354.5,173.5C 354.5,171.833 354.5,170.167 354.5,168.5 Z"/></g>
<g><path style="opacity:1" fill="#b8d6f2" d="M 378.5,161.5 C 385.746,162.464 393.08,162.797 400.5,162.5C 397.016,163.165 393.349,163.499 389.5,163.5C 385.435,163.489 381.768,162.822 378.5,161.5 Z"/></g>
<g><path style="opacity:1" fill="#fcfcfd" d="M 116.5,258.5 C 161.812,256.366 182.312,278.033 178,323.5C 174.29,353.527 157.29,368.194 127,367.5C 101.689,367.851 85.6892,355.851 79,331.5C 77.5144,320.539 77.181,309.539 78,298.5C 81.9065,276.429 94.7398,263.096 116.5,258.5 Z"/></g>
<g><path style="opacity:1" fill="#fcfcfc" d="M 227.5,258.5 C 241.871,257.073 255.205,259.906 267.5,267C 265.391,272.497 263.391,277.997 261.5,283.5C 255.001,281.169 248.335,279.335 241.5,278C 234.755,276.298 228.922,277.798 224,282.5C 221.3,288.267 222.467,293.1 227.5,297C 236.833,302 246.167,307 255.5,312C 266.923,319.921 271.089,330.755 268,344.5C 263.98,356.948 255.48,364.448 242.5,367C 233.833,367.667 225.167,367.667 216.5,367C 210.881,366.211 205.548,364.544 200.5,362C 199.354,354.914 199.188,347.747 200,340.5C 211.32,347.039 223.487,349.872 236.5,349C 245.203,346.571 248.036,341.071 245,332.5C 243.127,330.291 240.96,328.458 238.5,327C 230.009,322.922 221.676,318.588 213.5,314C 199.258,301.523 196.758,287.023 206,270.5C 212.012,264.248 219.179,260.248 227.5,258.5 Z"/></g>
<g><path style="opacity:1" fill="#fbfcfc" d="M 321.5,340.5 C 322.246,345.479 322.912,345.146 323.5,339.5C 323.564,335.78 324.064,332.114 325,328.5C 330.667,306.5 336.333,284.5 342,262.5C 345.571,261.208 349.405,260.542 353.5,260.5C 357.595,260.542 361.429,261.208 365,262.5C 372.27,287.911 378.436,313.578 383.5,339.5C 384.088,345.146 384.754,345.479 385.5,340.5C 391.168,313.828 396.835,287.162 402.5,260.5C 410.174,260.334 417.841,260.5 425.5,261C 416.749,295.838 407.916,330.671 399,365.5C 390.251,366.484 381.418,366.817 372.5,366.5C 365.722,341.72 359.722,316.72 354.5,291.5C 353.833,286.167 353.167,286.167 352.5,291.5C 347.392,316.369 341.392,341.036 334.5,365.5C 325.859,366.498 317.192,366.831 308.5,366.5C 299.888,331.218 290.888,296.051 281.5,261C 289.159,260.5 296.826,260.334 304.5,260.5C 310.799,287.03 316.466,313.697 321.5,340.5 Z"/></g>
<g><path style="opacity:1" fill="#9da9ba" d="M 484.5,260.5 C 471.5,260.5 458.5,260.5 445.5,260.5C 445.5,295.833 445.5,331.167 445.5,366.5C 444.502,331.004 444.168,295.337 444.5,259.5C 458.01,259.171 471.344,259.504 484.5,260.5 Z"/></g>
<g><path style="opacity:1" fill="#fdfefe" d="M 484.5,260.5 C 510.869,262.883 521.869,277.217 517.5,303.5C 512.599,318.311 502.266,326.477 486.5,328C 480.175,328.5 473.842,328.666 467.5,328.5C 467.5,341.167 467.5,353.833 467.5,366.5C 460.167,366.5 452.833,366.5 445.5,366.5C 445.5,331.167 445.5,295.833 445.5,260.5C 458.5,260.5 471.5,260.5 484.5,260.5 Z"/></g>
<g><path style="opacity:1" fill="#1d3961" d="M 120.5,277.5 C 138.966,274.829 150.133,282.496 154,300.5C 154.786,310.207 154.453,319.874 153,329.5C 147.688,345.079 136.855,351.246 120.5,348C 109.751,344.909 103.584,337.742 102,326.5C 99.538,314.971 100.205,303.637 104,292.5C 107.19,284.843 112.69,279.843 120.5,277.5 Z"/></g>
<g><path style="opacity:1" fill="#1e3a62" d="M 467.5,278.5 C 475.052,277.873 482.385,278.706 489.5,281C 497.133,289.006 497.466,297.339 490.5,306C 483.335,309.951 475.669,311.451 467.5,310.5C 467.5,299.833 467.5,289.167 467.5,278.5 Z"/></g>
<g><path style="opacity:1" fill="#7889a1" d="M 354.5,291.5 C 353.833,291.5 353.167,291.5 352.5,291.5C 353.167,286.167 353.833,286.167 354.5,291.5 Z"/></g>
<g><path style="opacity:1" fill="#919eb2" d="M 323.5,339.5 C 322.912,345.146 322.246,345.479 321.5,340.5C 322.167,340.167 322.833,339.833 323.5,339.5 Z"/></g>
<g><path style="opacity:1" fill="#8c9aaf" d="M 383.5,339.5 C 384.167,339.833 384.833,340.167 385.5,340.5C 384.754,345.479 384.088,345.146 383.5,339.5 Z"/></g>
<g><path style="opacity:1" fill="#124a86" d="M 538.5,437.5 C 538.5,425.5 538.5,413.5 538.5,401.5C 379.167,401.5 219.833,401.5 60.5,401.5C 60.5,413.5 60.5,425.5 60.5,437.5C 59.5048,425.345 59.1714,413.011 59.5,400.5C 219.5,400.5 379.5,400.5 539.5,400.5C 539.829,413.011 539.495,425.345 538.5,437.5 Z"/></g>
<g><path style="opacity:0.961" fill="#006ed2" d="M 39.5,401.5 C 44.1667,401.5 48.8333,401.5 53.5,401.5C 53.3334,414.504 53.5001,427.504 54,440.5C 54.3076,441.308 54.8076,441.975 55.5,442.5C 136.599,489.604 217.932,536.271 299.5,582.5C 381.068,536.271 462.401,489.604 543.5,442.5C 544.192,441.975 544.692,441.308 545,440.5C 545.5,427.504 545.667,414.504 545.5,401.5C 550.167,401.5 554.833,401.5 559.5,401.5C 559.825,418.077 559.492,434.577 558.5,451C 472.444,500.022 386.777,549.522 301.5,599.5C 300.167,599.5 298.833,599.5 297.5,599.5C 212.223,549.522 126.556,500.022 40.5,451C 39.5084,434.577 39.1751,418.077 39.5,401.5 Z"/></g>
<g><path style="opacity:1" fill="#016fd2" d="M 538.5,437.5 C 459.06,483.726 379.393,529.726 299.5,575.5C 219.607,529.726 139.94,483.726 60.5,437.5C 60.5,425.5 60.5,413.5 60.5,401.5C 219.833,401.5 379.167,401.5 538.5,401.5C 538.5,413.5 538.5,425.5 538.5,437.5 Z"/></g>
<g><path style="opacity:1" fill="#e7f1fa" d="M 289.5,429.5 C 300.109,429.325 310.609,430.325 321,432.5C 323.402,431.267 325.902,430.267 328.5,429.5C 333.669,430.12 336.335,433.12 336.5,438.5C 348.243,443.746 358.076,451.413 366,461.5C 367.609,472.224 363.109,476.39 352.5,474C 329.831,449.932 302.831,443.265 271.5,454C 270.019,456.762 268.353,459.429 266.5,462C 263.77,462.728 261.103,462.562 258.5,461.5C 253.688,465.144 249.021,468.978 244.5,473C 235.23,473.343 231.396,468.843 233,459.5C 248.316,442.76 267.149,432.76 289.5,429.5 Z"/></g>
<g><path style="opacity:1" fill="#1072d4" d="M 288.5,432.5 C 299.964,432.184 311.298,433.184 322.5,435.5C 322.393,437.903 323.393,439.736 325.5,441C 328.877,441.369 332.21,441.369 335.5,441C 346.435,445.938 355.601,453.105 363,462.5C 364.327,469.503 361.494,472.67 354.5,472C 330.333,446.134 301.667,439.634 268.5,452.5C 260.597,448.243 256.43,450.577 256,459.5C 251.578,463.601 246.912,467.268 242,470.5C 236.455,469.422 234.455,466.089 236,460.5C 250.241,444.964 267.741,435.631 288.5,432.5 Z"/></g>
<g><path style="opacity:1" fill="#2879d6" d="M 326.5,432.5 C 332.555,431.942 333.888,434.109 330.5,439C 325.791,439.082 324.458,436.915 326.5,432.5 Z"/></g>
<g><path style="opacity:1" fill="#2779d6" d="M 260.5,453.5 C 266.555,452.942 267.888,455.109 264.5,460C 259.791,460.082 258.458,457.915 260.5,453.5 Z"/></g>
<g><path style="opacity:1" fill="#e8f1fb" d="M 296.5,456.5 C 301.254,455.543 304.587,457.21 306.5,461.5C 318.524,464.115 329.524,468.948 339.5,476C 342.704,478.869 345.537,482.035 348,485.5C 348.506,494.985 344.006,498.819 334.5,497C 319.807,482.327 302.473,477.993 282.5,484C 275.956,487.216 269.956,491.216 264.5,496C 257.158,497.667 252.825,494.834 251.5,487.5C 251.679,484.809 252.679,482.475 254.5,480.5C 265.245,470.461 277.912,464.127 292.5,461.5C 293.16,459.185 294.493,457.519 296.5,456.5 Z"/></g>
<g><path style="opacity:1" fill="#0e71d3" d="M 286.5,465.5 C 290.219,464.772 293.219,465.772 295.5,468.5C 296.772,469.046 298.106,469.379 299.5,469.5C 302.7,468.764 305.533,467.431 308,465.5C 322.647,467.989 334.981,474.655 345,485.5C 345.947,492.885 342.78,495.719 335.5,494C 317.287,476.929 296.954,473.929 274.5,485C 271.167,487.667 267.833,490.333 264.5,493C 257.22,494.719 254.053,491.885 255,484.5C 263.63,474.94 274.13,468.607 286.5,465.5 Z"/></g>
<g><path style="opacity:1" fill="#e9f2fb" d="M 294.5,491.5 C 313.333,490.832 322.166,499.832 321,518.5C 318.79,525.544 314.29,530.544 307.5,533.5C 305.455,538.522 301.789,540.356 296.5,539C 294.767,534.935 291.767,532.268 287.5,531C 278.479,523.083 276.313,513.583 281,502.5C 284.336,497.269 288.836,493.602 294.5,491.5 Z"/></g>
<g><path style="opacity:1" fill="#1172d4" d="M 294.5,494.5 C 312.988,493.854 320.488,502.521 317,520.5C 313.392,529.168 307.725,531.502 300,527.5C 297.262,527.576 294.928,528.576 293,530.5C 283.242,525.87 279.575,518.203 282,507.5C 284.353,501.315 288.52,496.982 294.5,494.5 Z"/></g>
<g><path style="opacity:1" fill="#eaf2fb" d="M 297.5,501.5 C 301.713,501.22 304.88,502.887 307,506.5C 305.483,512.285 304.649,518.285 304.5,524.5C 301.5,524.5 298.5,524.5 295.5,524.5C 295.664,521.813 295.497,519.146 295,516.5C 289.954,510.56 290.787,505.56 297.5,501.5 Z"/></g>
<g><path style="opacity:1" fill="#1b75d5" d="M 297.5,504.5 C 299.936,504.317 302.103,504.984 304,506.5C 303.035,511.379 302.201,516.379 301.5,521.5C 300.167,521.5 298.833,521.5 297.5,521.5C 297.663,519.143 297.497,516.81 297,514.5C 293.561,510.944 293.728,507.611 297.5,504.5 Z"/></g>
<g><path style="opacity:1" fill="#1e77d5" d="M 298.5,529.5 C 302.976,529.8 304.31,531.967 302.5,536C 296.339,536.878 295.006,534.711 298.5,529.5 Z"/></g>
</svg>
